<?xml version="1.0" encoding="utf-8"?>
<svg viewBox="57.032 47.356 260.168 211.746" xmlns="http://www.w3.org/2000/svg">
  <g transform="matrix(0.1, 0, 0, -0.1, 47.207081, 340.601715)" fill="#000000" stroke="none">
    <path d="M 943 2082 C 692 1992 671 1650 908 1533 C 989 1493 1091 1493 1172 1533 C 1279 1586 1335 1677 1335 1800 C 1335 1885 1314 1942 1261 2003 C 1189 2084 1048 2120 943 2082 Z M 1094 1905 C 1176 1866 1180 1744 1101 1697 C 1026 1653 920 1710 920 1795 C 920 1888 1010 1945 1094 1905 Z" style="fill: rgb(0, 60, 110);"/>
    <path d="M 1420 1800 L 1420 1710 L 1750 1710 L 2080 1710 L 2080 1800 L 2080 1890 L 1750 1890 L 1420 1890 L 1420 1800 Z" style="fill: rgb(0, 60, 110);"/>
    <path d="M 1743 1392 C 1492 1302 1471 960 1708 843 C 1755 820 1778 815 1840 815 C 2014 815 2135 936 2135 1110 C 2135 1195 2114 1252 2061 1313 C 1989 1394 1848 1430 1743 1392 Z M 1894 1215 C 1976 1176 1980 1054 1901 1007 C 1826 963 1720 1020 1720 1105 C 1720 1198 1810 1255 1894 1215 Z" style="fill: rgb(0, 60, 110);"/>
    <path d="M 800 1110 L 800 1020 L 1130 1020 L 1460 1020 L 1460 1110 L 1460 1200 L 1130 1200 L 800 1200 L 800 1110 Z" style="fill: rgb(0, 60, 110);"/>
  </g>
  <path d="M 100.81 178.005 L 66.95 178.005 C 61.478 178.005 57.032 173.559 57.032 168.087 C 57.032 162.615 61.478 158.169 66.95 158.169 L 100.81 158.169 C 106.282 158.169 110.728 162.615 110.728 168.087 C 110.728 173.559 106.282 178.005 100.81 178.005 Z" fill="#FFA400"/>
  <path d="M 126.75 124.651 C 124.698 124.651 122.304 123.967 120.594 122.257 L 93.917 100.368 C 89.813 96.948 89.129 90.792 92.549 86.346 C 95.969 82.241 102.125 81.557 106.572 84.978 L 133.249 106.866 C 137.353 110.287 138.037 116.443 134.617 120.889 C 132.223 123.283 129.487 124.651 126.75 124.651 Z" fill="#FFA400"/>
  <path d="M 187.287 101.394 C 181.815 101.394 177.369 96.948 177.369 91.476 L 177.369 57.274 C 177.369 51.802 181.815 47.356 187.287 47.356 C 192.759 47.356 197.205 51.802 197.205 57.274 L 197.205 91.476 C 197.205 96.948 192.759 101.394 187.287 101.394 Z" fill="#FFA400"/>
  <path d="M 247.481 124.651 C 244.745 124.651 241.667 123.283 239.957 120.889 C 236.537 116.785 237.221 110.287 241.325 106.866 L 268.002 84.978 C 272.106 81.557 278.605 82.241 282.025 86.346 C 285.445 90.45 284.761 96.948 280.657 100.368 L 253.98 122.257 C 251.928 123.967 249.875 124.651 247.481 124.651 Z" fill="#FFA400"/>
  <path d="M 307.282 178.005 L 273.08 178.005 C 267.608 178.005 263.162 173.559 263.162 168.087 C 263.162 162.615 267.608 158.169 273.08 158.169 L 307.282 158.169 C 312.754 158.169 317.2 162.615 317.2 168.087 C 317.2 173.559 312.754 178.005 307.282 178.005 Z" fill="#FFA400"/>
</svg>